<svg xmlns="http://www.w3.org/2000/svg" width="800" height="800" viewBox="0 0 800 800">
  <circle cx="400" cy="400" r="350" fill="#007BFF" />
  <rect x="100" y="200" width="600" height="400" rx="20" ry="20" fill="#FFFFFF" />
  <rect x="150" y="250" width="500" height="300" fill="#F2F2F2" />
  <circle cx="250" cy="550" r="30" fill="#CCCCCC" />
  <circle cx="325" cy="550" r="30" fill="#CCCCCC" />
  <circle cx="400" cy="550" r="30" fill="#CCCCCC" />
  <circle cx="475" cy="550" r="30" fill="#CCCCCC" />
  <circle cx="550" cy="550" r="30" fill="#CCCCCC" />
  <rect x="325" y="400" width="150" height="60" rx="10" ry="10" fill="#F2F2F2" />
  <text x="400" y="430" text-anchor="middle" fill="#007BFF" font-size="24px" font-weight="bold">TypeSpeed</text>
  
  <circle cx="150" cy="400" r="20" fill="#007BFF" />
  <circle cx="150" cy="600" r="20" fill="#007BFF" />
  <circle cx="250" cy="400" r="20" fill="#007BFF" />
  <circle cx="250" cy="600" r="20" fill="#007BFF" />
  <circle cx="350" cy="400" r="20" fill="#007BFF" />
  <circle cx="350" cy="600" r="20" fill="#007BFF" />
  <circle cx="450" cy="400" r="20" fill="#007BFF" />
  <circle cx="450" cy="600" r="20" fill="#007BFF" />
  <circle cx="550" cy="400" r="20" fill="#007BFF" />
  <circle cx="550" cy="600" r="20" fill="#007BFF" />
  
  <rect x="250" y="325" width="100" height="25" rx="5" ry="5" fill="#CCCCCC" />
  <rect x="350" y="325" width="100" height="25" rx="5" ry="5" fill="#CCCCCC" />
  <rect x="250" y="375" width="100" height="25" rx="5" ry="5" fill="#CCCCCC" />
  <rect x="350" y="375" width="100" height="25" rx="5" ry="5" fill="#CCCCCC" />
  
  <line x1="100" y1="400" x2="150" y2="400" stroke="#CCCCCC" stroke-width="3" />
  <line x1="100" y1="600" x2="150" y2="600" stroke="#CCCCCC" stroke-width="3" />
  <line x1="250" y1="400" x2="250" y2="550" stroke="#CCCCCC" stroke-width="3" />
  <line x1="350" y1="400" x2="350" y2="550" stroke="#CCCCCC" stroke-width="3" />
  <line x1="450" y1="400" x2="450" y2="550" stroke="#CCCCCC" stroke-width="3" />
  <line x1="550" y1="400" x2="550" y2="550" stroke="#CCCCCC" stroke-width="3" />
  
  <polygon points="150,350 200,400 150,450" fill="#CCCCCC" />
  <polygon points="150,550 200,600 150,650" fill="#CCCCCC" />
  <polygon points="250,325 300,375 250,425" fill="#CCCCCC" />
  <polygon points="250,425 300,375 350,425" fill="#CCCCCC" />
  <polygon points="350,325 400,375 350,425" fill="#CCCCCC" />
  <polygon points="350,425 400,375 450,425" fill="#CCCCCC" />
  <polygon points="450,325 500,375 450,425" fill="#CCCCCC" />
  <polygon points="450,425 500,375 550,425" fill="#CCCCCC" />
  <polygon points="550,325 600,375 550,425" fill="#CCCCCC" />
  <polygon points="550,425 600,375 650,425" fill="#CCCCCC" />
</svg>
